<svg xmlns="http://www.w3.org/2000/svg" xmlns:svg="http://www.w3.org/2000/svg" id="svg4306" width="24" height="24" enable-background="new" version="1.1"><defs id="defs4308"><linearGradient id="linearGradient3770"><stop id="stop3772" offset="0" stop-color="#000" stop-opacity=".628"/><stop id="stop3774" offset="1" stop-color="#000" stop-opacity=".498"/></linearGradient><linearGradient id="linearGradient4882"><stop id="stop4884" offset="0" stop-color="#fff" stop-opacity="1"/><stop id="stop4886" offset="1" stop-color="#fff" stop-opacity="0"/></linearGradient><linearGradient id="linearGradient3784-6"><stop id="stop3786-4" offset="0" stop-color="#fff" stop-opacity=".216"/><stop id="stop3788-6" offset="1" stop-color="#fff" stop-opacity="0"/></linearGradient><linearGradient id="linearGradient4892"><stop id="stop4894" offset="0" stop-color="#2f3a42" stop-opacity="1"/><stop id="stop4896" offset="1" stop-color="#1d242a" stop-opacity="1"/></linearGradient><linearGradient id="linearGradient4882-4"><stop id="stop4884-9" offset="0" stop-color="#728495" stop-opacity="1"/><stop id="stop4886-9" offset="1" stop-color="#617c95" stop-opacity="0"/></linearGradient></defs><metadata id="metadata4311"/><g id="layer1" transform="translate(0,-1028.3622)"><g id="titlebutton-close-active" display="inline" transform="translate(-437,1218)"><g id="g4927-8-7" display="inline" opacity="1" transform="translate(-882,-432.63782)"><g id="g4490-6-3-7" display="inline" opacity="1" transform="translate(-103,0)"><g id="g4092-0-2-2-1" display="inline" transform="translate(58,0)"><circle id="path4068-7-5-4-9" cx="1376" cy="255" r="7" fill="#f13039" fill-opacity="1" stroke="none" stroke-dasharray="none" stroke-dashoffset="0" stroke-linecap="butt" stroke-linejoin="miter" stroke-miterlimit="4" stroke-opacity="1" stroke-width="0"/></g></g><g id="g4778-3-6" fill="#fff" fill-opacity="1" transform="translate(1323,246.86719)"><g id="g2996-7-0" fill="#fff" fill-opacity="1" transform="matrix(0.75,0,0,0.75,2,2.0546875)"><g id="layer12-4-6-3" fill="#fff" fill-opacity="1" transform="translate(-60,-518)"><g id="layer4-4-1-4-1" fill="#fff" fill-opacity="1" display="inline" transform="translate(19,-242)"><path id="path10839-9-8-7" fill="#fff" fill-opacity="1" fill-rule="nonzero" stroke="none" stroke-width="1.781" d="m 45.001573,764.10442 1,0 c 0.01037,-1.2e-4 0.02079,-4.6e-4 0.03125,0 0.254951,0.0112 0.50987,0.12858 0.6875,0.3125 l 2.28125,2.28125 2.3125,-2.28125 c 0.265625,-0.2305 0.446672,-0.3055 0.6875,-0.3125 l 1,0 0,1 c 0,0.28647 -0.03434,0.55065 -0.25,0.75 l -2.28125,2.28125 2.25,2.25 c 0.188188,0.18817 0.281242,0.45345 0.28125,0.71875 l 0,1 -1,0 c -0.265301,-10e-6 -0.530586,-0.0931 -0.71875,-0.28125 l -2.28125,-2.28125 -2.28125,2.28125 c -0.188164,0.18819 -0.45346,0.28125 -0.71875,0.28125 l -1,0 0,-1 c -3e-6,-0.26529 0.09306,-0.53058 0.28125,-0.71875 l 2.28125,-2.25 -2.28125,-2.28125 c -0.210742,-0.19463 -0.30316,-0.46925 -0.28125,-0.75 l 0,-1 z" color="#bebebe" direction="ltr" display="inline" enable-background="new" font-family="Andale Mono" font-size="medium" font-stretch="normal" font-style="normal" font-variant="normal" font-weight="normal" letter-spacing="normal" overflow="visible" text-anchor="start" text-decoration="none" visibility="visible" word-spacing="normal" writing-mode="lr-tb" style="line-height:normal;-inkscape-font-specification:'Andale Mono';text-indent:0;text-align:start;text-decoration-line:none;text-transform:none;block-progression:tb;marker:none"/></g></g></g></g></g><rect id="rect17883-02" width="16" height="16" x="441" y="-185.638" fill="none" fill-opacity="1" stroke="none" stroke-dasharray="none" stroke-dashoffset="0" stroke-linecap="butt" stroke-linejoin="miter" stroke-miterlimit="4" stroke-opacity="0" stroke-width="1" display="inline" opacity="1"/></g></g></svg>