<svg xmlns="http://www.w3.org/2000/svg" xmlns:svg="http://www.w3.org/2000/svg" id="svg4306" width="24" height="24" enable-background="new" version="1.1"><defs id="defs4308"><linearGradient id="linearGradient3770"><stop id="stop3772" offset="0" stop-color="#000" stop-opacity=".628"/><stop id="stop3774" offset="1" stop-color="#000" stop-opacity=".498"/></linearGradient><linearGradient id="linearGradient4882"><stop id="stop4884" offset="0" stop-color="#fff" stop-opacity="1"/><stop id="stop4886" offset="1" stop-color="#fff" stop-opacity="0"/></linearGradient><linearGradient id="linearGradient3784-6"><stop id="stop3786-4" offset="0" stop-color="#fff" stop-opacity=".216"/><stop id="stop3788-6" offset="1" stop-color="#fff" stop-opacity="0"/></linearGradient><linearGradient id="linearGradient4892"><stop id="stop4894" offset="0" stop-color="#2f3a42" stop-opacity="1"/><stop id="stop4896" offset="1" stop-color="#1d242a" stop-opacity="1"/></linearGradient><linearGradient id="linearGradient4882-4"><stop id="stop4884-9" offset="0" stop-color="#728495" stop-opacity="1"/><stop id="stop4886-9" offset="1" stop-color="#617c95" stop-opacity="0"/></linearGradient></defs><metadata id="metadata4311"/><g id="layer1" transform="translate(0,-1028.3622)"><g id="titlebutton-close-hover" display="inline" transform="translate(-538,1218)"><g id="g4927" display="inline" opacity="1" transform="translate(-781,-432.63782)"><g id="g4490-6-9" display="inline" opacity="1" transform="translate(-103,0)"><g id="g4092-0-2-3" display="inline" transform="translate(58,0)"><path id="path4068-7-5-8" fill="#f68086" fill-opacity="1" stroke="none" stroke-dasharray="none" stroke-dashoffset="0" stroke-linecap="butt" stroke-linejoin="miter" stroke-miterlimit="4" stroke-opacity="1" stroke-width="0" d="m 172,92 a 7,7 0 0 0 -7,7 7,7 0 0 0 7,7 7,7 0 0 0 7,-7 7,7 0 0 0 -7,-7 z m -3,3.921875 0.75,0 c 0.008,-9e-5 0.0156,-3.45e-4 0.0234,0 0.19121,0.0084 0.3824,0.09643 0.51562,0.234375 L 172,97.867188 173.73438,96.15625 c 0.19921,-0.172875 0.335,-0.229125 0.51562,-0.234375 l 0.75,0 0,0.75 c 0,0.214853 -0.0258,0.412987 -0.1875,0.5625 l -1.71094,1.710937 1.6875,1.687498 c 0.14114,0.14113 0.21093,0.34009 0.21094,0.53907 l 0,0.75 -0.75,0 c -0.19898,-1e-5 -0.39794,-0.0698 -0.53906,-0.21094 L 172,100 l -1.71094,1.71094 c -0.14112,0.14114 -0.34009,0.21094 -0.53906,0.21094 l -0.75,0 0,-0.75 c 0,-0.19897 0.0698,-0.39794 0.21094,-0.53907 l 1.71094,-1.687498 -1.71094,-1.710937 C 169.05288,97.088403 168.98357,96.882438 169,96.671875 l 0,-0.75 z" transform="translate(1204,156)"/></g></g></g><rect id="rect17883-5" width="16" height="16" x="542" y="-185.638" fill="none" fill-opacity="1" stroke="none" stroke-dasharray="none" stroke-dashoffset="0" stroke-linecap="butt" stroke-linejoin="miter" stroke-miterlimit="4" stroke-opacity="0" stroke-width="1" display="inline" opacity="1"/><path id="path10839-9-2-2-7-9-7-4-9" fill="#fff" fill-opacity=".706" fill-rule="nonzero" stroke="none" stroke-width="1.781" d="m 547.00004,-180.71594 0.75,0 c 0.008,-9e-5 0.0156,-3.5e-4 0.0234,0 0.19122,0.008 0.3824,0.0964 0.51563,0.23437 l 1.71093,1.71094 1.73438,-1.71094 c 0.19922,-0.17287 0.335,-0.22912 0.51562,-0.23437 l 0.75,0 0,0.75 c 0,0.21485 -0.0257,0.41298 -0.1875,0.5625 l -1.71093,1.71093 1.6875,1.6875 c 0.14114,0.14113 0.21093,0.34009 0.21093,0.53907 l 0,0.75 -0.75,0 c -0.19897,-1e-5 -0.39793,-0.0698 -0.53906,-0.21094 L 550,-176.63782 l -1.71093,1.71094 c -0.14113,0.14114 -0.3401,0.21094 -0.53907,0.21094 l -0.75,0 0,-0.75 c 0,-0.19897 0.0698,-0.39794 0.21094,-0.53907 l 1.71094,-1.6875 -1.71094,-1.71093 c -0.15805,-0.14598 -0.22737,-0.35194 -0.21094,-0.5625 l 0,-0.75 z" color="#bebebe" direction="ltr" display="inline" enable-background="new" font-family="Andale Mono" font-size="medium" font-stretch="normal" font-style="normal" font-variant="normal" font-weight="normal" letter-spacing="normal" opacity="1" overflow="visible" text-anchor="start" text-decoration="none" visibility="visible" word-spacing="normal" writing-mode="lr-tb" style="line-height:normal;-inkscape-font-specification:'Andale Mono';text-indent:0;text-align:start;text-decoration-line:none;text-transform:none;block-progression:tb;marker:none"/></g></g></svg>