<svg xmlns="http://www.w3.org/2000/svg" xmlns:svg="http://www.w3.org/2000/svg" id="svg4306" width="24" height="24" enable-background="new" version="1.1"><defs id="defs4308"><linearGradient id="linearGradient3770"><stop id="stop3772" offset="0" stop-color="#000" stop-opacity=".628"/><stop id="stop3774" offset="1" stop-color="#000" stop-opacity=".498"/></linearGradient><linearGradient id="linearGradient4882"><stop id="stop4884" offset="0" stop-color="#fff" stop-opacity="1"/><stop id="stop4886" offset="1" stop-color="#fff" stop-opacity="0"/></linearGradient><linearGradient id="linearGradient3784-6"><stop id="stop3786-4" offset="0" stop-color="#fff" stop-opacity=".216"/><stop id="stop3788-6" offset="1" stop-color="#fff" stop-opacity="0"/></linearGradient><linearGradient id="linearGradient4892"><stop id="stop4894" offset="0" stop-color="#2f3a42" stop-opacity="1"/><stop id="stop4896" offset="1" stop-color="#1d242a" stop-opacity="1"/></linearGradient><linearGradient id="linearGradient4882-4"><stop id="stop4884-9" offset="0" stop-color="#728495" stop-opacity="1"/><stop id="stop4886-9" offset="1" stop-color="#617c95" stop-opacity="0"/></linearGradient></defs><metadata id="metadata4311"/><g id="layer1" transform="translate(0,-1028.3622)"><g id="titlebutton-min-hover-dark" display="inline" transform="translate(-480,1218)"><g id="g4909-3-7" display="inline" opacity="1" transform="translate(-781,-432.63782)"><ellipse id="path4068-7-5-9-6-7-2-1-6-1" cx="1273" cy="255" fill="#5f697f" fill-opacity="1" stroke="none" stroke-dasharray="none" stroke-dashoffset="0" stroke-linecap="butt" stroke-linejoin="miter" stroke-miterlimit="4" stroke-opacity="1" stroke-width="0" display="inline" opacity=".45" rx="6" ry="6"/><path id="path4068-7-5-9-6-7-2-5-23-4-3" fill="#15171c" fill-opacity="1" stroke="none" stroke-dasharray="none" stroke-dashoffset="0" stroke-linecap="butt" stroke-linejoin="miter" stroke-miterlimit="4" stroke-opacity="1" stroke-width="0" d="m 1273,248 a 7,7 0 0 0 -7,7 7,7 0 0 0 7,7 7,7 0 0 0 7,-7 7,7 0 0 0 -7,-7 z m 0,1 a 6,6 0 0 1 6,6 6,6 0 0 1 -6,6 6,6 0 0 1 -6,-6 6,6 0 0 1 6,-6 z" display="inline" opacity=".37"/><g id="g4834-0-4-5" fill="#c0e3ff" fill-opacity="1" display="inline" opacity="1" transform="translate(1265,247)"><g id="layer12-45-6-2-7" fill="#c0e3ff" fill-opacity="1" display="inline" transform="translate(-81.0002,-967)"><path font-stretch="normal" style="line-height:normal;-inkscape-font-specification:Sans;text-indent:0;text-align:start;text-decoration-line:none;text-transform:none;block-progression:tb;marker:none" id="rect9057-8-2-3" fill="#c4c7cc" fill-opacity="1" stroke="none" stroke-width="2" d="m 86.0002,974 0,2 6,0 0,-2 z" baseline-shift="baseline" color="#000" direction="ltr" display="inline" enable-background="accumulate" font-family="Sans" font-size="medium" font-style="normal" font-variant="normal" font-weight="normal" letter-spacing="normal" opacity="1" overflow="visible" text-anchor="start" text-decoration="none" visibility="visible" word-spacing="normal" writing-mode="lr-tb"/></g></g></g><rect id="rect17883-11-4-0" width="16" height="16" x="484" y="-185.638" fill="none" fill-opacity="1" stroke="none" stroke-dasharray="none" stroke-dashoffset="0" stroke-linecap="butt" stroke-linejoin="miter" stroke-miterlimit="4" stroke-opacity="0" stroke-width="1" display="inline" opacity="1"/></g></g></svg>